HIERARCHY
ROOT Pelvis
{
	OFFSET 0.000000 0.000000 0.000000
	CHANNELS 6 Xposition Yposition Zposition Xrotation Yrotation Zrotation
	JOINT LeftUpLeg_virtual
	{
		OFFSET 0.000000 0.000000 0.000000
		CHANNELS 3 Xrotation Yrotation Zrotation
		JOINT LeftUpLeg
		{
			OFFSET 18.735201 -5.666702 -4.541200
			CHANNELS 3 Xrotation Yrotation Zrotation
			JOINT LeftLeg
			{
				OFFSET -0.021200 -31.938179 0.493100
				CHANNELS 3 Xrotation Yrotation Zrotation
				JOINT LeftFoot
				{
					OFFSET 0.021200 -31.938179 -4.336299
					CHANNELS 3 Xrotation Yrotation Zrotation
					JOINT LeftToeBase
					{
						OFFSET 0.943001 -26.722000 15.023500
						CHANNELS 3 Xrotation Yrotation Zrotation
						End Site
						{
							OFFSET 0 0 0
						}
					}
				}
			}
		}
	}
	JOINT RightUpLeg_virtual
	{
		OFFSET 0.000000 0.000000 0.000000
		CHANNELS 3 Xrotation Yrotation Zrotation
		JOINT RightUpLeg
		{
			OFFSET -18.735201 -5.666702 -4.541200
			CHANNELS 3 Xrotation Yrotation Zrotation
			JOINT RightLeg
			{
				OFFSET 0.018946 -31.938133 0.493100
				CHANNELS 3 Xrotation Yrotation Zrotation
				JOINT RightFoot
				{
					OFFSET -0.018946 -31.938126 -4.336299
					CHANNELS 3 Xrotation Yrotation Zrotation
					JOINT RightToeBase
					{
						OFFSET -0.943001 -26.722004 15.023500
						CHANNELS 3 Xrotation Yrotation Zrotation
						End Site
						{
							OFFSET 0 0 0
						}
					}
				}
			}
		}
	}
	JOINT Hips_virtual
	{
		OFFSET 0.000000 0.000000 0.000000
		CHANNELS 3 Xrotation Yrotation Zrotation
		JOINT Hips
		{
			OFFSET -0.000000 -0.000000 -0.000000
			CHANNELS 3 Xrotation Yrotation Zrotation
			JOINT Spine
			{
				OFFSET 0.000000 10.199997 -0.299500
				CHANNELS 3 Xrotation Yrotation Zrotation
				JOINT Spine1
				{
					OFFSET 0.000000 11.900002 -1.516600
					CHANNELS 3 Xrotation Yrotation Zrotation
					JOINT Spine2
					{
						OFFSET 0.000000 13.600006 -2.842500
						CHANNELS 3 Xrotation Yrotation Zrotation
						JOINT Neck_virtual
						{
							OFFSET 0.000000 0.000000 0.000000
							CHANNELS 3 Xrotation Yrotation Zrotation
							JOINT Neck
							{
								OFFSET 0.000000 9.624100 -2.890100
								CHANNELS 3 Xrotation Yrotation Zrotation
								JOINT Head
								{
									OFFSET 0.000000 14.068802 -1.351900
									CHANNELS 3 Xrotation Yrotation Zrotation
									End Site
									{
										OFFSET 0 0 0
									}
								}
							}
						}
						JOINT LeftShoulder_virtual
						{
							OFFSET 0.000000 0.000000 0.000000
							CHANNELS 3 Xrotation Yrotation Zrotation
							JOINT LeftShoulder
							{
								OFFSET 15.263000 10.923401 -0.547700
								CHANNELS 3 Xrotation Yrotation Zrotation
								JOINT LeftArm
								{
									OFFSET 25.438599 -2.830597 -13.032500
									CHANNELS 3 Xrotation Yrotation Zrotation
									JOINT LeftForeArm
									{
										OFFSET 29.960503 0.000000 0.000000
										CHANNELS 3 Xrotation Yrotation Zrotation
										JOINT LeftHand
										{
											OFFSET 27.849251 0.000000 0.000000
											CHANNELS 3 Xrotation Yrotation Zrotation
											End Site
											{
												OFFSET 0 0 0
											}
										}
									}
								}
							}
						}
						JOINT RightShoulder_virtual
						{
							OFFSET 0.000000 0.000000 0.000000
							CHANNELS 3 Xrotation Yrotation Zrotation
							JOINT RightShoulder
							{
								OFFSET -15.263000 10.923401 -0.547700
								CHANNELS 3 Xrotation Yrotation Zrotation
								JOINT RightArm
								{
									OFFSET -25.438599 -2.830597 -13.032500
									CHANNELS 3 Xrotation Yrotation Zrotation
									JOINT RightForeArm
									{
										OFFSET -29.960503 0.000000 0.000000
										CHANNELS 3 Xrotation Yrotation Zrotation
										JOINT RightHand
										{
											OFFSET -27.849251 0.000000 0.000000
											CHANNELS 3 Xrotation Yrotation Zrotation
											End Site
											{
												OFFSET 0 0 0
											}
										}
									}
								}
							}
						}
					}
				}
			}
		}
	}
}
MOTION
Frames: 8
Frame Time: 0.03333333
-0.758017 84.200005 73.916061 0.000000 0.000000 0.000000 29.421159 -2.813189 -5.635283 2.156122 15.345994 6.166134 20.739203 8.150372 -6.608605 -25.793590 11.245448 -10.577931 0.000000 0.000000 0.000000 -5.730915 15.893659 15.595453 -39.420836 -3.897501 -1.931095 54.501153 -17.244226 -8.456472 -3.257782 -14.624968 -16.195710 0.000000 0.000000 0.000000 12.427914 8.835803 -0.534905 27.256548 10.222397 -6.029983 11.704778 0.353356 4.606708 4.921907 -0.441461 2.918109 0.000000 0.000000 0.000000 5.671929 -0.379382 2.299551 0.619546 -0.272647 0.759343 0.000000 0.000000 0.000000 10.520872 -1.332882 4.134046 3.562603 -12.441834 4.245991 -12.539658 -51.558038 0.884314 94.854075 -79.056803 104.292433 0.000000 0.000000 0.000000 9.151471 0.825073 1.519717 2.846105 3.980431 7.590412 -12.845214 27.484471 -8.452108 72.616427 76.458278 -89.389097 0.000000 0.000000 0.000000 
-0.785495 84.051247 74.105392 0.000000 0.000000 0.000000 29.437593 -2.796305 -5.575504 2.149985 15.352430 6.249270 21.006064 8.073634 -6.670281 -25.630690 11.192575 -10.685086 0.000000 0.000000 0.000000 -5.835815 15.597744 15.620663 -39.637148 -3.972002 -1.970954 54.741787 -17.262173 -8.528267 -3.142020 -14.574724 -16.324516 0.000000 0.000000 0.000000 12.458194 8.762045 -0.521808 27.538054 10.292395 -6.052846 11.557618 0.333259 4.594481 4.825821 -0.452414 2.916085 0.000000 0.000000 0.000000 5.556691 -0.381435 2.293437 0.581226 -0.263956 0.750351 0.000000 0.000000 0.000000 10.389694 -1.358644 4.138005 3.552563 -12.512620 4.356694 -12.859496 -51.476537 0.813687 93.760322 -79.129196 103.217764 0.000000 0.000000 0.000000 9.008951 0.791159 1.493827 2.838252 3.963684 7.461434 -12.901555 27.643811 -8.314048 72.735231 76.516950 -89.462562 0.000000 0.000000 0.000000 
-0.810380 83.904640 74.293137 0.000000 0.000000 0.000000 29.458613 -2.780269 -5.519354 2.149184 15.359863 6.327620 21.273333 7.998964 -6.732358 -25.467547 11.141941 -10.791929 0.000000 0.000000 0.000000 -5.927035 15.298051 15.644825 -39.839042 -4.048553 -2.011200 54.960497 -17.280088 -8.597659 -3.042399 -14.526387 -16.446874 0.000000 0.000000 0.000000 12.490953 8.691558 -0.509883 27.827794 10.374886 -6.087094 11.403509 0.315849 4.584946 4.725497 -0.461909 2.915946 0.000000 0.000000 0.000000 5.437424 -0.380860 2.288393 0.542592 -0.254694 0.741778 0.000000 0.000000 0.000000 10.254308 -1.383118 4.142689 3.542572 -12.583456 4.471210 -13.203831 -51.393816 0.727833 92.639242 -79.202635 102.116840 0.000000 0.000000 0.000000 8.863427 0.758820 1.470604 2.828108 3.956887 7.341274 -12.983583 27.812440 -8.157691 72.805841 76.577130 -89.487950 0.000000 0.000000 0.000000 
-0.832002 83.757401 74.478577 0.000000 0.000000 0.000000 29.482010 -2.765380 -5.465552 2.151482 15.367613 6.402603 21.541095 7.926147 -6.794641 -25.304229 11.093218 -10.898256 0.000000 0.000000 0.000000 -6.006352 15.007254 15.669987 -40.025913 -4.124345 -2.049492 55.164371 -17.294153 -8.664290 -2.952300 -14.476603 -16.560014 0.000000 0.000000 0.000000 12.525063 8.625523 -0.499275 28.123096 10.470719 -6.134458 11.245116 0.300089 4.573430 4.622485 -0.470306 2.915152 0.000000 0.000000 0.000000 5.315656 -0.378541 2.280870 0.502981 -0.245560 0.732559 0.000000 0.000000 0.000000 10.116030 -1.406519 4.147017 3.532119 -12.655955 4.592444 -13.577413 -51.311229 0.633874 91.467475 -79.278293 100.969327 0.000000 0.000000 0.000000 8.718850 0.726978 1.446804 2.821058 3.956476 7.216004 -13.057695 27.988555 -8.010328 72.818327 76.634852 -89.454346 0.000000 0.000000 0.000000 
-0.851448 83.612076 74.661362 0.000000 0.000000 0.000000 29.509119 -2.755605 -5.413520 2.158487 15.374882 6.473678 21.809921 7.854826 -6.857620 -25.140330 11.046284 -11.004870 0.000000 0.000000 0.000000 -6.072728 14.730384 15.695939 -40.195236 -4.198120 -2.085331 55.363089 -17.300948 -8.727186 -2.862530 -14.422971 -16.661237 0.000000 0.000000 0.000000 12.561040 8.558865 -0.489168 28.426197 10.570858 -6.192071 11.085011 0.280305 4.560796 4.517987 -0.480545 2.914072 0.000000 0.000000 0.000000 5.193804 -0.377962 2.271466 0.462715 -0.237140 0.722451 0.000000 0.000000 0.000000 9.977224 -1.431694 4.151225 3.521933 -12.731188 4.716997 -13.969445 -51.226269 0.532257 90.230364 -79.354804 99.757358 0.000000 0.000000 0.000000 8.574597 0.693424 1.423474 2.817288 3.954424 7.089139 -13.127774 28.143521 -7.869683 72.712910 76.691031 -89.303760 0.000000 0.000000 0.000000 
-0.870132 83.464119 74.841980 0.000000 0.000000 0.000000 29.539434 -2.752938 -5.361905 2.169383 15.380976 6.541974 22.079360 7.784402 -6.921210 -24.976315 11.000547 -11.111910 0.000000 0.000000 0.000000 -6.131344 14.470143 15.724699 -40.352399 -4.269270 -2.117353 55.561758 -17.299081 -8.786411 -2.769273 -14.363977 -16.749931 0.000000 0.000000 0.000000 12.597337 8.490681 -0.479559 28.729873 10.674870 -6.260988 10.919859 0.262664 4.548745 4.410266 -0.489450 2.913904 0.000000 0.000000 0.000000 5.070828 -0.376012 2.260822 0.421587 -0.229245 0.710721 0.000000 0.000000 0.000000 9.836341 -1.455674 4.155688 3.511093 -12.809297 4.839157 -14.377449 -51.136878 0.415913 88.938202 -79.431316 98.488603 0.000000 0.000000 0.000000 8.428213 0.662001 1.401937 2.813546 3.965574 6.967114 -13.204255 28.308242 -7.707733 72.508960 76.747407 -89.055381 0.000000 0.000000 0.000000 
-0.890773 83.314034 75.018265 0.000000 0.000000 0.000000 29.572933 -2.755869 -5.311229 2.183910 15.386377 6.607389 22.346106 7.714328 -6.985416 -24.814882 10.955476 -11.219638 0.000000 0.000000 0.000000 -6.183597 14.228327 15.756539 -40.498568 -4.337278 -2.145315 55.762621 -17.289900 -8.842429 -2.671407 -14.300502 -16.828119 0.000000 0.000000 0.000000 12.633853 8.415944 -0.469599 29.033263 10.770560 -6.336041 10.744061 0.238071 4.533949 4.296093 -0.501355 2.912440 0.000000 0.000000 0.000000 4.943813 -0.376843 2.246593 0.379982 -0.221882 0.696804 0.000000 0.000000 0.000000 9.689775 -1.482257 4.158525 3.499477 -12.888649 4.956544 -14.799481 -51.040132 0.277804 87.565819 -79.508607 97.135132 0.000000 0.000000 0.000000 8.277150 0.628438 1.381980 2.808173 3.972137 6.848655 -13.298333 28.439603 -7.537912 72.206800 76.801365 -88.707027 0.000000 0.000000 0.000000 
-0.913963 83.161758 75.194763 0.000000 0.000000 0.000000 29.610274 -2.765031 -5.260726 2.203217 15.390885 6.670423 22.609714 7.644612 -7.050441 -24.656262 10.911196 -11.328331 0.000000 0.000000 0.000000 -6.227469 14.003349 15.790330 -40.631682 -4.402415 -2.169968 55.969425 -17.275635 -8.895468 -2.565728 -14.234727 -16.898984 0.000000 0.000000 0.000000 12.672049 8.336885 -0.459978 29.342373 10.860397 -6.418044 10.557242 0.212647 4.514762 4.175364 -0.513235 2.909082 0.000000 0.000000 0.000000 4.813183 -0.377300 2.227795 0.338061 -0.215086 0.680565 0.000000 0.000000 0.000000 9.537277 -1.508582 4.158433 3.486773 -12.969777 5.067459 -15.229222 -50.932765 0.122393 86.086844 -79.584743 95.669756 0.000000 0.000000 0.000000 8.123271 0.595613 1.361583 2.803077 3.985769 6.726488 -13.394050 28.576743 -7.368450 71.842150 76.851376 -88.293008 0.000000 0.000000 0.000000 
